<svg width="20" height="20" viewBox="0 0 20 20" fill="none" xmlns="http://www.w3.org/2000/svg">
<path d="M18.3351 9.9999C18.3351 14.6023 14.6042 18.3332 10.0018 18.3332C5.39942 18.3332 1.66846 14.6023 1.66846 9.9999C1.66846 5.39753 5.39942 1.66656 10.0018 1.66656C14.6042 1.66656 18.3351 5.39753 18.3351 9.9999Z" fill="#0A17A7"/>
<path d="M7.91846 6.2499V1.9291C8.2578 1.84176 8.6055 1.77526 8.96012 1.73104C9.30137 1.68849 9.64902 1.66656 10.0018 1.66656C10.3546 1.66656 10.7022 1.68849 11.0435 1.73104C11.3981 1.77526 11.7458 1.84176 12.0851 1.9291V7.39573L15.6268 3.85135C16.0086 4.20081 16.4601 4.66465 16.8768 5.3124L14.1685 7.91656H18.0726C18.1599 8.2559 18.2264 8.60361 18.2707 8.95823C18.3132 9.29948 18.3351 9.64713 18.3351 9.9999C18.3351 10.3527 18.3132 10.7003 18.2707 11.0416C18.2264 11.3962 18.1599 11.7439 18.0726 12.0832H13.5435L16.6691 14.9999C16.2211 15.5963 15.695 16.1306 15.106 16.5876L12.0851 13.5416V18.0707C11.7458 18.158 11.3981 18.2245 11.0435 18.2688C10.7022 18.3113 10.3546 18.3332 10.0018 18.3332C9.64902 18.3332 9.30136 18.3113 8.96012 18.2688C8.6055 18.2245 8.25779 18.158 7.91845 18.0707L7.91846 12.7082L4.48096 16.2422C4.01477 15.8296 3.59514 15.3656 3.23096 14.859L6.25179 12.0832H1.93099C1.84365 11.7439 1.77715 11.3962 1.73293 11.0416C1.69038 10.7003 1.66846 10.3527 1.66846 9.9999C1.66846 9.64713 1.69038 9.29948 1.73293 8.95823C1.77715 8.60361 1.84365 8.2559 1.93099 7.91656H6.35596L3.33512 4.99909C3.79748 4.38369 4.34306 3.8344 4.95515 3.36791L7.91846 6.2499Z" fill="white"/>
<path d="M7.91846 7.91656L4.11532 4.10127C3.91421 4.30196 3.72331 4.51286 3.54346 4.73315L6.87679 7.91656H7.91846Z" fill="#DB1F35"/>
<path d="M12.0851 7.91656L15.8883 4.10126C16.0894 4.30195 16.2803 4.51286 16.4601 4.73315L13.1268 7.91656H12.0851Z" fill="#DB1F35"/>
<path d="M12.0851 12.1548L15.8883 15.9701C16.0894 15.7694 16.2803 15.5585 16.4601 15.3382L13.1268 12.1548H12.0851Z" fill="#DB1F35"/>
<path d="M7.91846 12.1548L4.11532 15.9701C3.91421 15.7694 3.72331 15.5585 3.54346 15.3382L6.87679 12.1548H7.91846Z" fill="#DB1F35"/>
<path d="M1.73293 8.95823C1.69038 9.29948 1.66846 9.64713 1.66846 9.9999C1.66846 10.3527 1.69038 10.7003 1.73293 11.0416H8.96012V18.2688C9.30136 18.3113 9.64902 18.3332 10.0018 18.3332C10.3546 18.3332 10.7022 18.3113 11.0435 18.2688V11.0416H18.2707C18.3132 10.7003 18.3351 10.3527 18.3351 9.9999C18.3351 9.64713 18.3132 9.29948 18.2707 8.95823H11.0435V1.73104C10.6357 1.6697 10.4266 1.66656 10.0018 1.66656C9.64902 1.66656 9.30137 1.68849 8.96012 1.73104V8.95823H1.73293Z" fill="#DB1F35"/>
</svg>
