<svg width="20" height="20" viewBox="0 0 20 20" fill="none" xmlns="http://www.w3.org/2000/svg">
<path d="M18.3351 9.9999C18.3351 14.6023 14.6042 18.3332 10.0018 18.3332C5.39942 18.3332 1.66846 14.6023 1.66846 9.9999C1.66846 5.39753 5.39942 1.66656 10.0018 1.66656C14.6042 1.66656 18.3351 5.39753 18.3351 9.9999Z" fill="#CC0000"/>
<path fill-rule="evenodd" clip-rule="evenodd" d="M10.0018 1.66656C5.39942 1.66656 1.66846 5.39753 1.66846 9.9999H10.0018V1.66656Z" fill="#112B82"/>
<path fill-rule="evenodd" clip-rule="evenodd" d="M18.2507 11.1904C18.3064 10.8016 18.3351 10.4041 18.3351 9.9999C18.3351 9.99988 18.3351 9.99991 18.3351 9.9999H1.66846C1.66846 9.99988 1.66846 9.99991 1.66846 9.9999C1.66846 10.4041 1.69723 10.8016 1.75284 11.1904H18.2507ZM17.99 12.3811H2.01361C2.13594 12.7921 2.28913 13.1898 2.47049 13.5716H17.5331C17.7145 13.1898 17.8676 12.7921 17.99 12.3811ZM16.8413 14.762H3.16224C3.4607 15.1899 3.79829 15.5884 4.16982 15.9525H15.8338C16.2053 15.5884 16.5429 15.1899 16.8413 14.762ZM14.2986 17.1416H5.705C6.92102 17.8748 8.33955 18.3062 9.85685 18.332H10.1467C11.664 18.3062 13.0826 17.8748 14.2986 17.1416ZM14.2967 2.8572H10.0018V4.04768H15.834C15.371 3.5939 14.8552 3.19373 14.2967 2.8572ZM16.8414 5.23794H10.0018V6.42841H17.5331C17.335 6.01135 17.1032 5.61336 16.8414 5.23794ZM17.9901 7.61907H10.0018V8.80955H18.2507C18.1925 8.4025 18.1049 8.00493 17.9901 7.61907Z" fill="white"/>
<path d="M7.1577 2.1645C6.99786 2.22253 6.8403 2.28531 6.6852 2.35267L6.61969 2.55282L6.90955 2.3436L7.19941 2.55282L7.0887 2.2143L7.1577 2.1645Z" fill="white"/>
<path d="M5.80556 2.79859C5.85588 2.76921 5.90653 2.74034 5.95751 2.71198L6.00639 2.86154H6.36468L6.07482 3.07076L6.18562 3.40927L5.89575 3.20005L5.60589 3.40927L5.71652 3.07076L5.55257 2.95242C5.60123 2.92163 5.65024 2.89134 5.69957 2.86154H5.78495L5.80556 2.79859Z" fill="white"/>
<path d="M4.86186 3.44003C4.87234 3.43181 4.88284 3.42361 4.89337 3.41544L4.99242 3.71808H5.35063L5.06077 3.92722L5.17149 4.26573L4.88162 4.05651L4.59176 4.26573L4.70256 3.92722L4.47488 3.76295C4.49183 3.74792 4.50883 3.73297 4.52589 3.71808H4.77099L4.86186 3.44003Z" fill="white"/>
<path d="M3.80492 4.42812C3.83549 4.39414 3.86634 4.36041 3.89746 4.32694L3.97838 4.57454H4.33667L4.04681 4.78376L4.15761 5.12227L3.86775 4.91305L3.57788 5.12227L3.6886 4.78376L3.57136 4.69913C3.60592 4.65725 3.64088 4.61572 3.67623 4.57454H3.75703L3.80492 4.42812Z" fill="white"/>
<path d="M2.79619 5.811C2.87128 5.68211 2.94973 5.55542 3.03142 5.43104H3.32279L3.03293 5.64026L3.14356 5.97878L2.8537 5.76947L2.79619 5.811Z" fill="white"/>
<path d="M1.83296 8.34394C1.86103 8.20473 1.89257 8.06677 1.92748 7.93017L1.95045 8.00047H2.30883L2.01897 8.20969L2.12968 8.54821L1.83982 8.33899L1.83296 8.34394Z" fill="white"/>
<path d="M8.91459 1.73684C8.92928 1.73493 8.94399 1.73305 8.9587 1.73122L9.04828 2.00508H9.40657L9.11671 2.2143L9.22734 2.55282L8.93756 2.3436L8.6477 2.55282L8.75841 2.2143L8.46855 2.00508H8.82693L8.91459 1.73684Z" fill="white"/>
<path d="M7.92368 2.52302L8.03431 2.86154H8.39261L8.10274 3.07076L8.21354 3.40927L7.92368 3.20005L7.63382 3.40927L7.74445 3.07076L7.45459 2.86154H7.81288L7.92368 2.52302Z" fill="white"/>
<path d="M6.90955 3.37957L7.02027 3.71808H7.37856L7.0887 3.92722L7.19941 4.26573L6.90955 4.05651L6.61969 4.26573L6.73049 3.92722L6.44062 3.71808H6.79892L6.90955 3.37957Z" fill="white"/>
<path d="M8.93756 3.37957L9.04828 3.71808H9.40657L9.11671 3.92722L9.22734 4.26573L8.93756 4.05651L8.6477 4.26573L8.75841 3.92722L8.46855 3.71808H8.82693L8.93756 3.37957Z" fill="white"/>
<path d="M5.89575 4.23602L6.00639 4.57454H6.36468L6.07482 4.78376L6.18562 5.12227L5.89575 4.91305L5.60589 5.12227L5.71652 4.78376L5.42666 4.57454H5.78495L5.89575 4.23602Z" fill="white"/>
<path d="M7.92368 4.23602L8.03431 4.57454H8.39261L8.10274 4.78376L8.21354 5.12227L7.92368 4.91305L7.63382 5.12227L7.74445 4.78376L7.45459 4.57454H7.81288L7.92368 4.23602Z" fill="white"/>
<path d="M4.88162 5.09253L4.99242 5.43104H5.35063L5.06077 5.64026L5.17149 5.97878L4.88162 5.76947L4.59176 5.97878L4.70256 5.64026L4.4127 5.43104H4.77099L4.88162 5.09253Z" fill="white"/>
<path d="M6.90955 5.09253L7.02027 5.43104H7.37856L7.0887 5.64026L7.19941 5.97878L6.90955 5.76947L6.61969 5.97878L6.73049 5.64026L6.44062 5.43104H6.79892L6.90955 5.09253Z" fill="white"/>
<path d="M8.93756 5.09253L9.04828 5.43104H9.40657L9.11671 5.64026L9.22734 5.97878L8.93756 5.76947L8.6477 5.97878L8.75841 5.64026L8.46855 5.43104H8.82693L8.93756 5.09253Z" fill="white"/>
<path d="M3.86775 5.94899L3.97838 6.2875H4.33667L4.04681 6.49672L4.15761 6.83523L3.86775 6.62601L3.57788 6.83523L3.6886 6.49672L3.39874 6.2875H3.75703L3.86775 5.94899Z" fill="white"/>
<path d="M5.89575 5.94899L6.00639 6.2875H6.36468L6.07482 6.49672L6.18562 6.83523L5.89575 6.62601L5.60589 6.83523L5.71652 6.49672L5.42666 6.2875H5.78495L5.89575 5.94899Z" fill="white"/>
<path d="M7.92368 5.94899L8.03431 6.2875H8.39261L8.10274 6.49672L8.21354 6.83523L7.92368 6.62601L7.63382 6.83523L7.74445 6.49672L7.45459 6.2875H7.81288L7.92368 5.94899Z" fill="white"/>
<path d="M2.8537 6.80546L2.9645 7.14397H3.32279L3.03293 7.35319L3.14356 7.6917L2.8537 7.48248L2.56384 7.6917L2.67464 7.35319L2.38477 7.14397H2.74307L2.8537 6.80546Z" fill="white"/>
<path d="M4.88162 6.80546L4.99242 7.14397H5.35063L5.06077 7.35319L5.17149 7.6917L4.88162 7.48248L4.59176 7.6917L4.70256 7.35319L4.4127 7.14397H4.77099L4.88162 6.80546Z" fill="white"/>
<path d="M6.90955 6.80546L7.02027 7.14397H7.37856L7.0887 7.35319L7.19941 7.6917L6.90955 7.48248L6.61969 7.6917L6.73049 7.35319L6.44062 7.14397H6.79892L6.90955 6.80546Z" fill="white"/>
<path d="M8.93756 6.80546L9.04828 7.14397H9.40657L9.11671 7.35319L9.22734 7.6917L8.93756 7.48248L8.6477 7.6917L8.75841 7.35319L8.46855 7.14397H8.82693L8.93756 6.80546Z" fill="white"/>
<path d="M3.86775 7.66197L3.97838 8.00048H4.33667L4.04681 8.2097L4.15761 8.54821L3.86775 8.33899L3.57788 8.54821L3.6886 8.2097L3.39874 8.00048H3.75703L3.86775 7.66197Z" fill="white"/>
<path d="M5.89575 7.66197L6.00639 8.00048H6.36468L6.07482 8.2097L6.18562 8.54821L5.89575 8.33899L5.60589 8.54821L5.71652 8.2097L5.42666 8.00048H5.78495L5.89575 7.66197Z" fill="white"/>
<path d="M7.92368 7.66197L8.03431 8.00048H8.39261L8.10274 8.2097L8.21354 8.54821L7.92368 8.33899L7.63382 8.54821L7.74445 8.2097L7.45459 8.00048H7.81288L7.92368 7.66197Z" fill="white"/>
<path d="M2.8537 8.51842L2.9645 8.85693H3.32279L3.03293 9.06615L3.14356 9.40467L2.8537 9.19544L2.56384 9.40467L2.67464 9.06615L2.38477 8.85693H2.74307L2.8537 8.51842Z" fill="white"/>
<path d="M4.88162 8.51842L4.99242 8.85693H5.35063L5.06077 9.06615L5.17149 9.40467L4.88162 9.19544L4.59176 9.40467L4.70256 9.06615L4.4127 8.85693H4.77099L4.88162 8.51842Z" fill="white"/>
<path d="M6.90955 8.51842L7.02027 8.85693H7.37856L7.0887 9.06615L7.19941 9.40467L6.90955 9.19544L6.61969 9.40467L6.73049 9.06615L6.44062 8.85693H6.79892L6.90955 8.51842Z" fill="white"/>
<path d="M8.93756 8.51842L9.04828 8.85693H9.40657L9.11671 9.06615L9.22734 9.40467L8.93756 9.19544L8.6477 9.40467L8.75841 9.06615L8.46855 8.85693H8.82693L8.93756 8.51842Z" fill="white"/>
</svg>
