<svg width="20" height="20" viewBox="0 0 20 20" fill="none" xmlns="http://www.w3.org/2000/svg">
  <g clip-path="url(#clip0_7401_960)">
    <path d="M16.4153 15.9185C16.4153 17.1591 15.4096 18.1647 14.1691 18.1647L4.27615 18.165C3.03567 18.165 2.02996 17.1593 2.02996 15.9188L2.03025 12.423L2.63359 15.2073C2.88593 16.3717 4.00386 17.1371 5.18058 16.9507L16.4152 15.1708L16.4153 15.9185Z" fill="#BDDEF9"/>
    <path d="M14.3344 2.96924C15.5593 2.77542 16.7095 3.61149 16.9037 4.83643L17.972 11.5806C18.1661 12.8058 17.3301 13.9568 16.1049 14.1509L5.92029 15.7632C4.69522 15.9572 3.54523 15.1219 3.35095 13.897L2.28259 7.15283C2.08858 5.92761 2.92455 4.77658 4.14978 4.58252L14.3344 2.96924ZM14.5687 4.44775L4.38416 6.06104C3.97577 6.12572 3.69647 6.51007 3.76111 6.91846L4.82947 13.6626C4.89427 14.0708 5.27768 14.3492 5.68591 14.2847L15.8705 12.6724C16.2788 12.6076 16.5582 12.2233 16.4935 11.8149L15.4252 5.0708C15.3604 4.66266 14.9769 4.38342 14.5687 4.44775Z" fill="#0A6CC2"/>
    <rect x="5.45789" y="7.76086" width="8.52671" height="1.49744" rx="0.748722" transform="rotate(-9 5.45789 7.76086)" fill="#0A6CC2"/>
    <rect x="6.2066" y="10.8015" width="4.82647" height="1.49744" rx="0.748722" transform="rotate(-9 6.2066 10.8015)" fill="#0A6CC2"/>
  </g>
  <defs>
    <clipPath id="clip0_7401_960">
      <rect width="20" height="20" fill="white"/>
    </clipPath>
  </defs>
</svg>
