<svg width="120" height="120" viewBox="0 0 120 120" fill="none" xmlns="http://www.w3.org/2000/svg">
<path d="M32.576 31.0224C31.781 27.2461 32.8524 23.2425 36.0923 20.917C38.0922 19.5104 40.5735 18.9592 42.9837 19.3861C45.2647 19.7696 47.2981 21.044 48.6333 22.9266C49.7824 24.5609 50.7554 27.3251 50.2794 29.3144C49.973 30.5947 51.2268 31.2694 52.1084 32.1823C53.1296 33.2495 54.0646 34.3953 54.9049 35.609C56.2991 34.4653 57.146 33.2057 58.302 31.8467C60.0567 29.7839 63.2797 28.3868 63.3404 32.3701C65.2449 31.8803 68.8126 31.3255 68.7452 34.6351C68.7216 35.795 67.3716 37.1286 66.4457 37.8173L66.9048 38.0272C72.9852 35.9793 75.6376 38.2663 80.4905 41.4919L95.2018 51.3255C97.0556 52.5641 100.524 54.4504 101.043 56.7029C101.538 58.8514 101.681 63.2708 100.686 65.2273C100.253 66.0765 99.6467 66.8259 98.9057 67.4271L98.9245 69.363L99.1216 70.1647C102.387 71.8765 105.421 73.4524 106.618 77.2489C107.516 80.0992 106.714 82.6547 105.417 85.2155C104.293 87.4348 100.491 92.0256 98.3953 93.28L98.2678 93.6651C98.2726 95.1306 98.5371 98.1345 97.3655 99.1711C95.6907 100.653 93.3268 99.9997 92.2239 98.111C90.2991 98.6998 86.824 101.361 84.5674 102.111L84.3405 102.44C84.3544 103.965 84.4892 106.336 83.2799 107.371C81.185 109.164 78.5824 107.869 77.8799 105.479C76.9315 105.712 75.0492 106.489 74.055 106.865C72.2505 107.554 70.4264 108.191 68.5847 108.773C57.9949 112.181 46.9041 113.367 36.0452 109.968C27.5514 107.235 18.0577 101.593 13.2123 94.0051C10.2327 89.3394 13.1278 82.5421 17.7456 80.1755L17.7498 77.7669C14.258 75.0281 14.788 70.4045 15.4691 66.4137C15.908 63.8413 22.0254 61.1356 24.4219 59.9832C23.547 56.6591 22.9276 53.0265 22.1519 49.6453C21.6268 47.1655 20.8624 44.8424 20.7066 42.3038C20.4743 38.5219 22.8496 35.8942 25.9432 34.1454C28.0396 32.9602 30.331 31.7449 32.576 31.0224Z" fill="black"/>
<path d="M17.7456 80.1755L17.7503 87.8531C19.4579 90.7372 23.1506 90.9875 24.1541 87.4544C24.4878 86.2792 24.2599 83.8067 24.296 82.4586C27.6401 84.9901 31.322 87.5217 34.7312 90.0178C36.9 91.6057 41.2964 94.9358 43.5062 95.9862C43.4832 98.9818 43.2935 102.327 43.6181 105.274C44.0112 108.844 49.9389 108.866 50.4315 105.259C50.7882 102.646 50.6201 99.6684 50.5734 97.0087C50.5683 96.7552 50.5607 96.5018 50.5506 96.2486C53.2951 95.404 61.5156 89.7347 64.6522 87.9401C64.649 90.5351 64.6614 93.1605 64.6298 95.7993C64.5903 99.0989 66.24 101.244 69.7366 100.277C70.4504 100.079 71.165 99.2241 71.6106 98.668C71.7034 97.72 71.8254 96.7673 71.7909 95.8171C72.8791 96.6228 76.7082 99.1663 77.8489 99.676C77.8619 101.591 77.9011 103.569 77.8799 105.479C76.9315 105.712 75.0492 106.489 74.055 106.865C72.2505 107.554 70.4264 108.191 68.5847 108.773C57.9949 112.181 46.9041 113.367 36.0452 109.968C27.5514 107.235 18.0577 101.593 13.2123 94.0051C10.2327 89.3394 13.1278 82.5421 17.7456 80.1755Z" fill="#B6CCEE"/>
<path d="M98.9245 69.363L99.1216 70.1647C102.387 71.8765 105.421 73.4524 106.618 77.2489C107.516 80.0992 106.714 82.6547 105.417 85.2155C104.293 87.4348 100.491 92.0256 98.3953 93.28L98.2678 93.6651C98.1483 87.5027 101.398 80.4569 101.326 74.2364C100.693 72.9382 100.173 72.3601 98.9469 71.6746C98.914 70.9626 98.9301 70.0883 98.9245 69.363Z" fill="#B6CCEE"/>
<path d="M84.3241 99.0968C86.8438 97.8255 89.4968 95.7436 92.1333 94.3341C92.1101 95.4615 92.0966 97.023 92.2239 98.111C90.2991 98.6998 86.824 101.361 84.5674 102.111L84.3405 102.44L84.3241 99.0968Z" fill="#B6CCEE"/>
<path d="M66.4457 37.8173L66.9048 38.0272C65.2304 38.8208 63.576 39.6219 61.9297 40.4707C61.8512 40.4476 61.7728 40.4243 61.6943 40.4012L61.6745 40.0514C61.9409 39.514 65.1837 38.5446 66.4457 37.8173Z" fill="#B6CCEE"/>
<path d="M58.9729 44.9723C60.7028 42.6759 62.8339 42.2426 65.205 40.9501C71.1644 37.7017 73.4464 39.138 78.5921 42.5543L84.5453 46.5227L92.7553 52.0078C94.2974 53.0374 95.88 54.0698 97.3887 55.1441C103.189 59.2752 94.8082 62.4044 91.6609 64.477C90.5989 63.4501 89.8462 63.0135 88.4859 62.4024C88.9949 59.8875 88.6846 57.2366 87.24 55.0727C86.0644 53.2832 84.2138 52.0427 82.1075 51.6322C79.9424 51.2119 77.6192 51.5994 75.7812 52.8405C73.9112 54.1218 72.6328 56.095 72.2304 58.3207C71.8398 60.3749 72.2469 62.5629 73.0448 64.4762C71.0405 63.9379 70.9428 63.5307 69.2878 62.2819C70.502 60.6327 70.9967 58.3553 67.8388 58.0778C67.095 58.0124 65.4916 60.5262 64.9582 61.2859C63.835 60.512 63.1518 59.8996 61.8259 59.5565C61.1984 59.6992 60.631 59.8631 60.0567 60.1615C57.8811 61.2917 55.8163 62.7787 53.7396 64.0849C52.2074 65.0485 50.5726 65.8995 49.0896 66.9297C48.6589 67.2288 48.0905 67.6118 47.8182 68.0679C47.562 68.4969 47.632 69.3781 47.7823 69.8336C48.1386 70.9134 56.9695 77.078 58.5084 78.1377C59.5768 78.8733 60.8277 79.4775 61.8034 80.3281C62.2166 80.6883 62.5236 81.2049 62.8368 81.6531C60.549 83.0481 58.2699 84.4573 55.9998 85.8806C54.1275 87.0475 52.0565 88.5035 50.0047 89.2602C47.8257 90.064 45.2543 89.6482 43.3 88.467C39.9048 86.0902 36.5692 83.6173 33.2087 81.1904C28.5558 77.8302 23.8563 74.5376 19.2148 71.1625C17.3779 69.8266 16.9158 69.2074 17.2419 66.8744C18.5712 64.8104 21.2907 63.7974 23.4102 62.6251C26.1889 61.0884 29.0643 59.6696 31.8234 58.0921C33.0849 57.4188 34.9977 58.1082 36.4581 58.1989C37.9097 58.289 39.1952 58.3039 40.6432 58.2794C43.658 57.7106 45.5932 57.5168 47.6611 55.0567C48.8669 52.953 48.4221 51.706 46.9495 49.9388C48.9004 48.9964 50.9052 47.9202 52.8257 46.9048L53.9109 46.4089C56.0771 46.8716 57.3585 46.3764 58.9729 44.9723Z" fill="white"/>
<path d="M31.8234 58.0921C33.0849 57.4188 34.9977 58.1082 36.4581 58.1989C37.9097 58.289 39.1952 58.3039 40.6432 58.2794C41.8655 58.2494 41.608 58.4592 42.6888 58.7614C41.1295 59.0014 38.9544 59.3311 37.4146 59.1835C36.1482 59.0622 32.6017 58.965 31.8234 58.0921Z" fill="#B6CCEE"/>
<path d="M58.9729 44.9723C59.3411 47.7249 54.6221 48.1482 52.8257 46.9048L53.9109 46.4089C56.0771 46.8716 57.3585 46.3764 58.9729 44.9723Z" fill="#B6CCEE"/>
<path d="M47.6611 55.0567C48.1204 57.3113 44.7879 58.3879 43.0282 58.7122C42.9156 58.7325 42.8025 58.7489 42.6888 58.7614C41.608 58.4592 41.8655 58.2494 40.6432 58.2794C43.658 57.7106 45.5932 57.5168 47.6611 55.0567Z" fill="#B6CCEE"/>
<path d="M82.7864 97.894C81.9335 98.4218 80.5152 98.9595 79.5299 98.4666C76.9678 97.1817 74.6205 95.433 72.1919 93.9138C71.4263 93.4349 70.0459 92.3863 70.7954 91.3582C71.5753 91.2681 77.8536 95.4975 79.1507 95.8327C80.6619 96.2917 80.7313 93.9673 80.9723 92.9645C81.6752 89.9669 82.2857 86.9709 83.152 84.0142C83.7857 81.851 84.8436 80.7432 86.7508 79.5723C90.1037 77.5389 93.3814 75.2285 96.8715 73.4496C98.0046 72.8719 98.9085 73.8173 99.4209 74.689C99.3945 76.1841 99.1032 77.9462 98.7594 79.4342C98.0847 82.3551 97.7544 85.4259 96.9212 88.3023C96.4881 89.7976 92.2108 91.813 90.9029 92.8174C88.1854 94.535 85.5027 96.2915 82.7864 97.894Z" fill="#07579C"/>
<path d="M82.7864 97.894C81.9335 98.4218 80.5152 98.9595 79.5299 98.4666C76.9678 97.1817 74.6205 95.433 72.1919 93.9138C71.4263 93.4349 70.0459 92.3863 70.7954 91.3582C71.5753 91.2681 77.8536 95.4975 79.1507 95.8327C80.6619 96.2917 80.7313 93.9673 80.9723 92.9645C81.6752 89.9669 82.2857 86.9709 83.152 84.0142C83.7857 81.851 84.8436 80.7432 86.7508 79.5723C90.1037 77.5389 93.3814 75.2285 96.8715 73.4496C98.0046 72.8719 98.9085 73.8173 99.4209 74.689L99.1695 75.3384L99.0595 75.3518C98.4121 75.437 97.7194 75.6764 97.1377 75.9706C95.5156 76.7916 93.959 77.9257 92.4096 78.8905C90.9429 79.8039 89.3637 80.636 87.9693 81.6516C87.4049 82.0628 86.8174 82.546 86.4003 83.1076C85.9739 83.6818 85.6821 84.4143 85.4723 85.095C85.0461 86.4784 82.63 96.9642 82.7687 97.798C82.7741 97.8301 82.7806 97.862 82.7864 97.894Z" fill="#0A6CC2"/>
<path d="M49.6992 32.4023C51.3483 34.0391 52.4553 35.8874 53.717 37.1499C52.2054 38.2366 51.7802 38.7306 50.9893 40.4529C50.8456 40.7661 50.5806 41.4227 50.4017 41.6795C49.4272 40.4986 50.7276 38.0677 49.278 37.6106C48.7854 37.7674 48.968 37.6603 48.5919 38.0583C48.4149 38.6291 48.4708 39.3565 48.3843 39.9662C48.2514 40.9026 48.0894 41.8409 47.9299 42.7733C47.893 43.9588 47.627 46.4526 47.3792 47.6051C46.9512 47.8376 45.3804 48.7196 44.9795 48.8141C42.8726 49.3108 39.6026 50.1989 37.5887 49.2366C36.8941 49.1497 36.2082 49.0776 35.5258 48.9189C35.6377 47.5274 36.1932 43.6922 35.4691 42.7115C35.083 42.5355 35.2526 42.5547 34.8288 42.6473C33.9528 43.431 33.771 47.41 33.5069 48.8335C32.2672 49.1215 31.4747 49.0075 31.3767 50.3996C30.0072 50.5557 29.1853 50.4183 27.8795 50.4523L27.7758 50.5877C27.4624 49.057 27.6515 47.5264 27.8291 46.0031C28.5452 39.8575 29.2974 37.7742 33.9219 34.0236C38.4547 40.0428 46.2305 38.953 49.6992 32.4023Z" fill="#0A6CC2"/>
<path d="M37.5887 49.2366C38.0566 48.7728 38.1941 48.7967 38.7867 48.58C41.439 47.6105 44.1456 46.5982 46.0723 44.4415C46.5584 43.8974 47.2973 43.0886 47.9299 42.7733C47.893 43.9588 47.627 46.4526 47.3792 47.6051C46.9512 47.8376 45.3804 48.7196 44.9795 48.8141C42.8726 49.3108 39.6026 50.1989 37.5887 49.2366Z" fill="#07579C"/>
<path d="M87.7677 64.2588C91.5365 65.829 92.6067 69.7406 92.781 73.5083C89.9379 75.6044 86.4131 77.1833 83.7111 79.4793C80.9411 81.8334 81.2498 84.9352 80.0853 88.0463C79.8992 88.5441 77.9731 87.3216 77.7431 87.153C77.0753 86.6861 76.9084 86.3491 76.5113 85.6476L76.4904 83.8498C77.1331 83.0603 77.774 82.1574 78.3827 81.3327C78.7908 80.6016 79.8703 79.0376 79.3056 78.2235C78.0691 77.9073 75.1659 82.5737 74.1765 83.577C72.3263 82.9804 71.0087 81.3825 70.2415 79.6721C70.6636 78.5407 71.5655 77.1302 72.0649 76.1414C73.1158 74.061 75.7414 70.0425 78.1752 69.3197C82.9379 67.9052 84.5004 69.2478 87.7677 64.2588Z" fill="#0A6CC2"/>
<path d="M76.4904 83.8498C77.1331 83.0603 77.774 82.1574 78.3827 81.3327C78.8241 82.328 77.8737 85.7087 77.7431 87.153C77.0753 86.6861 76.9084 86.3491 76.5113 85.6476L76.4904 83.8498Z" fill="#07579C"/>
<path d="M40.6273 21.3206C44.6607 20.9118 48.2599 23.8465 48.6566 27.8673C49.0534 31.8882 46.0967 35.4652 42.0607 35.8472C38.0435 36.2274 34.4748 33.2977 34.0799 29.2957C33.6851 25.2937 36.6129 21.7275 40.6273 21.3206Z" fill="white"/>
<path d="M16.9342 71.9536C17.4987 72.1672 20.8264 74.6412 21.6297 75.21L35.0134 84.7954C37.7059 86.752 42.4158 90.6801 45.3987 91.3885C46.8643 91.7517 48.3985 91.7373 49.8571 91.3469C52.2079 90.7036 54.8774 88.8103 56.9936 87.4922L63.8134 83.265C64.4833 83.9139 64.8925 84.4054 65.4857 85.1238L64.6591 85.6856C61.5231 87.45 58.4873 89.6529 55.3851 91.4879C53.4027 92.6803 51.6837 94.0539 49.3784 94.5727C44.8325 95.5959 41.9398 92.919 38.5511 90.4528L30.8934 84.9114L23.1398 79.3334C21.4828 78.1543 19.7351 76.9555 18.169 75.6596C17.0766 74.7556 17.0039 73.2947 16.9342 71.9536Z" fill="#07579C"/>
<path d="M78.9704 53.6845C81.2947 53.1766 83.7136 53.9517 85.3052 55.7145C86.8967 57.4772 87.4157 59.9561 86.6642 62.206C85.9126 64.4559 84.0065 66.1303 81.6724 66.5909C78.1144 67.2929 74.6526 65.0089 73.9117 61.4703C73.171 57.932 75.4275 54.4589 78.9704 53.6845Z" fill="white"/>
<path d="M61.6238 61.2226C62.075 61.2727 62.8074 61.8241 63.2276 62.097C62.5323 62.7607 61.6719 63.6336 61.7017 64.6507C61.7385 65.9097 61.176 68.3693 61.4262 69.512L61.86 69.7217C62.4751 69.7392 63.0279 69.3227 63.6564 69.0377C64.287 69.0412 64.7463 69.7665 65.2407 69.8919C67.8871 70.5633 69.6033 71.3657 71.9188 72.8053C70.8092 74.347 70.0708 74.6812 68.423 75.6301C66.5028 73.3568 65.011 71.7863 61.7939 72.5225C59.7271 73.3214 59.2417 74.5016 59.2358 76.5914C56.1521 74.047 52.2943 71.6936 49.1433 69.0037C50.1577 68.1976 52.6862 66.6989 53.8671 65.9672C56.3793 64.4109 59.0597 62.6606 61.6238 61.2226Z" fill="white"/>
<path d="M59.793 65.2292L60.1863 65.3164L60.2676 65.5837C59.9737 66.3462 55.2153 69.0933 54.1341 69.7601C53.8645 69.7238 53.8796 69.7214 53.6748 69.5346L53.6719 69.2245C54.2 68.3811 58.7118 65.8106 59.793 65.2292Z" fill="black"/>
<path d="M59.6773 68.4713L60 68.6457L60.0431 68.9671C59.6542 69.7308 57.0443 71.1114 56.215 71.485L55.8693 71.3234L55.8271 71.068C56.2307 70.2719 58.8288 68.9004 59.6773 68.4713Z" fill="black"/>
<path d="M60.7834 70.8891L61.0392 71.0258C61.3976 71.9645 59.2316 72.9237 58.4922 73.2369C58.125 73.0945 58.2409 73.1954 58.0504 72.8631C58.2615 72.1233 60.0848 71.2463 60.7834 70.8891Z" fill="black"/>
<path d="M31.3767 50.3996C32.2824 50.637 33.101 50.4579 34.0263 50.5839C36.0081 50.819 38.1196 51.5474 40.1132 51.5623C41.8292 51.5751 44.7851 50.236 46.0598 51.942C46.9998 53.3089 45.9328 54.563 44.7277 55.1733C41.2778 56.9205 36.3949 56.633 32.7398 55.75C29.9001 55.0639 28.2489 53.4649 27.7758 50.5877L27.8795 50.4523C29.1853 50.4183 30.0072 50.5557 31.3767 50.3996Z" fill="white"/>
<path d="M53.717 37.1499L53.7443 37.2517C53.9468 38.0237 53.7522 38.2973 54.0636 38.9618L54.2511 39.0592C56.695 37.4081 59.0105 33.167 61.753 31.371C61.5555 32.0458 61.0568 33.435 61.2422 34.0512C62.3264 35.376 65.4548 33.2021 66.6813 34.0741C67.2294 35.3988 64.5613 36.5955 63.7417 37.0759C62.4851 37.8126 60.0013 37.0488 59.303 37.7144C59.3354 38.1847 59.4272 38.3265 59.8207 38.6645C59.9222 38.7513 60.0252 38.8363 60.1297 38.9196C59.5407 40.5912 58.3192 43.5331 56.6276 44.3424C54.1941 45.5064 52.0068 43.1364 50.4017 41.6795C50.5806 41.4227 50.8456 40.7661 50.9893 40.4529C51.7802 38.7306 52.2054 38.2366 53.717 37.1499Z" fill="white"/>
<path d="M74.5383 85.9436L74.756 85.976C75.6505 88.6963 77.0299 89.1447 79.5678 90.0651C79.3506 91.2576 79.1056 92.445 78.8327 93.6263C76.4397 92.3419 72.9721 90.0276 70.6709 89.0049C69.0648 90.163 68.1323 91.2993 68.9654 93.2875C69.2809 93.829 69.6685 94.3172 70.0466 94.8174C70.0583 95.6947 70.2283 97.4995 69.6251 98.1675C68.2243 99.7188 66.692 98.2393 66.6288 96.6516C66.4985 93.3853 66.4944 89.6364 66.6694 86.3977C70.2784 87.4911 71.009 88.3099 74.5383 85.9436Z" fill="#07579C"/>
<path d="M26.1864 59.0667C25.4825 56.6667 24.9978 53.5359 24.3811 51.0158C23.809 48.2388 22.9892 45.4354 22.6108 42.6279C21.9443 37.6824 27.8924 35.0354 31.5475 33.484C29.4985 35.1931 28.9581 35.9161 27.6622 38.235C26.6618 40.8612 26.3825 42.1599 25.9081 45.0021C25.5158 49.0222 25.2112 52.6592 28.3247 55.7137C29.085 56.2549 29.334 56.4229 30.1927 56.8059C29.6418 57.0906 29.0776 57.392 28.5236 57.6658L26.1864 59.0667Z" fill="#0A6CC2"/>
<path d="M25.9081 45.0021C24.2572 42.8263 25.1074 39.4655 27.6622 38.235C26.6618 40.8612 26.3825 42.1599 25.9081 45.0021Z" fill="#07579C"/>
<path d="M28.3247 55.7137C29.085 56.2549 29.334 56.4229 30.1927 56.8059C29.6418 57.0906 29.0776 57.392 28.5236 57.6658C28.246 56.9698 28.2565 56.4396 28.3247 55.7137Z" fill="#07579C"/>
<path d="M70.5682 85.7415C66.6918 84.8798 65.7901 82.274 63.3716 79.3491C62.7737 78.6261 58.6354 75.1314 63.1289 74.207C64.6127 73.9018 67.4662 77.2889 68.7357 78.5862C68.7008 79.2734 68.6955 80.0469 69.4055 80.3559C69.9554 80.1498 69.8187 80.172 70.2415 79.6721C71.0087 81.3825 72.3263 82.9804 74.1765 83.577C73.0389 84.8774 72.157 85.3047 70.5682 85.7415Z" fill="white"/>
<path d="M68.0815 63.9793C68.9713 64.4042 69.8878 65.3593 70.5763 65.6244C72.714 66.4474 74.6957 66.8027 76.7603 67.9023C75.495 68.5146 74.1926 69.6867 73.237 70.6992L73.0147 70.8981C72.006 70.9079 69.9036 69.3079 68.8403 68.928C67.7147 68.5258 65.5764 68.7465 65.1256 67.3156C64.7836 66.2304 67.3151 66.4271 67.3655 66.1262C67.5433 65.0666 67.3356 64.9185 68.0815 63.9793Z" fill="white"/>
<path d="M45.2326 96.4293C46.2009 96.6891 47.6995 96.7176 48.6901 96.7316C48.5488 98.9235 49.0039 104.05 48.2951 105.76C46.8298 106.496 45.3722 106.1 45.2671 104.323C45.1149 101.746 45.224 99.0295 45.2326 96.4293Z" fill="#07579C"/>
<path d="M19.6352 79.1529C19.9486 79.281 21.9148 80.7092 22.3191 80.996C22.3794 82.6815 22.5078 86.3522 22.0769 87.8916C21.7536 88.0788 21.3257 88.1554 20.9561 88.1676C20.6306 88.1784 20.3677 88.1157 20.138 87.8686C19.1691 86.8259 19.6195 80.8066 19.6352 79.1529Z" fill="#07579C"/>
<path d="M99.211 62.0639C99.3533 62.0798 99.2935 62.0797 99.4372 62.2447C99.4399 62.9921 99.435 63.247 99.196 63.9544C98.6649 65.5262 95.4199 67.5989 93.9023 68.2005L93.6853 68.0577C93.5005 67.4818 93.0242 66.5512 92.7516 65.9769C94.8668 64.8446 97.1396 63.3349 99.211 62.0639Z" fill="#07579C"/>
<path d="M79.684 100.482L82.4577 100.449C82.4732 101.812 82.6818 104.85 82.1473 105.918C78.8233 107.467 79.7402 102.481 79.684 100.482Z" fill="#07579C"/>
<path d="M96.3108 91.6152L96.4401 91.8101C96.5709 93.2684 96.6458 95.3608 96.4439 96.8202C96.2817 97.9922 95.5032 98.3184 94.397 98.0188C93.7706 97.2051 93.9453 94.2811 93.9522 93.1565C94.7208 92.6166 95.5075 92.1025 96.3108 91.6152Z" fill="#07579C"/>
<path d="M67.8539 59.8024C68.2086 59.9618 68.2601 59.982 68.4563 60.313C68.4706 61.022 64.7959 66.185 64.1057 67.2084C63.6161 67.0113 63.7513 67.1418 63.5282 66.7492C63.629 65.531 67.0138 61.2768 67.8539 59.8024Z" fill="#0A6CC2"/>
<path d="M96.6584 68.7583L96.8691 68.8052C97.0361 69.0505 97.0775 70.8693 97.1163 71.3496C96.1082 71.7114 95.682 71.8603 94.7659 72.4016C94.4968 72.1652 94.2613 70.6896 94.1781 70.269C95.0022 69.7931 95.8446 69.2587 96.6584 68.7583Z" fill="#07579C"/>
<path d="M49.746 43.8139C50.2897 44.2013 51.3461 44.8269 51.4573 45.4442L51.1028 45.6738L49.5263 46.3508C49.5373 45.5572 49.6621 44.6143 49.746 43.8139Z" fill="white"/>
<path d="M66.086 7.0307C70.0102 6.7667 74.1776 8.2043 76.6027 11.3864C79.7015 15.4525 78.6211 20.9255 74.5515 23.8715C71.5864 26.0179 67.932 26.5489 64.3676 26.0163C63.9392 26.0229 62.9425 25.7579 62.5379 25.5989C61.3533 26.0738 60.085 26.533 58.9202 27.0336C54.3983 28.9768 56.148 24.6176 56.8522 22.177C56.1719 21.1392 55.5062 20.1381 55.1855 18.9284C53.654 13.1494 57.9073 8.54888 63.3383 7.373C64.2675 7.17189 65.1098 7.10445 66.086 7.0307Z" fill="black"/>
<path d="M66.1935 8.9073C71.0985 8.56419 77.1775 11.8769 76.4502 17.355C75.698 23.0211 69.4613 24.8568 64.6589 24.1514C63.7613 24.0337 63.1153 23.8606 62.2411 23.636C60.7178 24.2938 59.4128 24.8826 57.8202 25.363C58.2729 24.2087 58.6355 22.8736 58.9895 21.6741C57.854 20.3606 57.0141 19.1057 56.8301 17.3143C56.628 15.5148 57.1812 13.7121 58.3589 12.3332C60.3541 9.97692 63.2312 9.16429 66.1935 8.9073Z" fill="#0A6CC2"/>
<path d="M66.5042 15.3535C67.2574 15.2963 67.9169 15.853 67.984 16.6027C68.0511 17.3525 67.5011 18.0166 66.7497 18.0932C66.2549 18.1437 65.7712 17.9249 65.4835 17.5207C65.1958 17.1164 65.1485 16.5891 65.3599 16.1406C65.5711 15.6919 66.0083 15.3912 66.5042 15.3535Z" fill="white"/>
<path d="M71.0105 15.3799C71.7283 15.2565 72.4171 15.7163 72.5758 16.4248C72.7345 17.1335 72.3071 17.8413 71.6047 18.0338C71.1188 18.1668 70.5989 18.0226 70.2521 17.6585C69.9052 17.2943 69.7877 16.7694 69.9463 16.2928C70.1049 15.8162 70.514 15.4654 71.0105 15.3799Z" fill="white"/>
<path d="M61.8062 15.379C62.5571 15.2726 63.2509 15.7967 63.3509 16.5457C63.451 17.295 62.9187 17.9816 62.1661 18.0745C61.4231 18.1663 60.7448 17.6441 60.646 16.9044C60.5473 16.1649 61.0651 15.4841 61.8062 15.379Z" fill="white"/>
</svg>
