<svg width="120" height="120" viewBox="0 0 120 120" fill="none" xmlns="http://www.w3.org/2000/svg">
<path d="M63.4618 21.6058C65.0998 20.9199 66.9684 20.1296 68.7475 20.0794C68.889 20.0754 69.4709 18.8769 69.5523 18.7187C70.6121 16.6118 72.047 14.7156 73.7869 13.1233C75.5501 11.4872 77.0278 10.3633 79.455 10.4596C83.1115 13.3525 83.885 21.4724 83.1749 25.6782C85.0748 27.3722 85.9621 30.36 87.427 32.4273C87.9425 33.1546 90.0145 34.5724 90.0858 35.0179C90.3904 36.917 87.3762 41.7616 86.5818 43.7388C86.8397 44.1973 87.0464 44.5982 87.2215 45.0978C87.6055 46.2031 87.534 47.4162 87.0226 48.4687C85.9395 50.7073 83.7594 51.8038 81.552 52.5761C82.4914 55.8028 82.3214 59.2515 81.0691 62.3702C80.4078 63.9919 79.6758 65.3413 79.237 67.0752C78.3461 70.5963 78.076 73.7993 77.8496 77.403C77.887 77.4213 77.9243 77.4396 77.9617 77.4579C82.924 78.6397 89.8945 81.7508 91.82 86.899C94.8855 95.0956 82.916 101.508 76.9584 103.642C62.8572 108.694 45.7246 109.753 31.695 104.034C28.298 102.587 24.4216 99.7586 23.1535 96.1864C22.4341 94.1599 22.6486 92.5139 23.5087 90.5764C24.1564 89.1176 25.604 87.3571 26.8172 86.3274C26.9042 86.2535 26.9007 86.2496 26.9494 86.1473C25.5256 79.042 27.3656 72.6503 33.7605 68.5686C35.2206 67.6368 37.7844 66.5599 39.5253 66.5538C41.2556 61.3511 44.1537 57.8355 48.5773 54.6116C51.4719 52.5023 52.8747 51.7506 54.9641 48.8052C53.1026 47.8556 50.5956 46.1036 49.4675 44.2946C49.9854 42.9705 50.9641 41.8193 51.4837 40.4139C52.1 38.7469 52.2199 36.3997 53.1639 34.9501C52.9989 34.5779 52.8652 34.1925 52.7645 33.7979C51.8131 30.2209 51.4537 24.3798 53.2209 20.9703C55.1299 17.2875 60.9073 20.0585 63.4618 21.6058Z" fill="black"/>
<path d="M77.8496 77.403C77.887 77.4213 77.9243 77.4396 77.9617 77.4579C82.924 78.6397 89.8945 81.7508 91.82 86.899C94.8855 95.0956 82.916 101.508 76.9584 103.642C62.8572 108.694 45.7246 109.753 31.695 104.034C28.298 102.587 24.4216 99.7586 23.1535 96.1864C22.4341 94.1599 22.6486 92.5139 23.5087 90.5764C24.1564 89.1176 25.604 87.3571 26.8172 86.3274C26.9042 86.2535 26.9007 86.2496 26.9494 86.1473C28.7967 91.7393 31.7076 95.2993 37.0491 97.9866C38.7401 98.8392 40.5234 99.4948 42.364 99.9404C46.2455 100.906 50.3505 100.994 54.2632 101.854C55.8059 102.193 58.5666 103.536 59.8613 103.307C61.5358 102.34 61.3794 96.2686 61.074 94.5854C63.0661 93.8518 64.3817 92.6677 63.7262 90.3936C63.3595 89.1215 62.2888 88.85 61.8444 88.0094C62.3352 87.2183 63.1471 87.7303 63.864 88.0132C64.3954 90.2276 64.7017 92.9708 66.829 94.2648C67.9928 94.9643 69.3855 95.1764 70.7048 94.8552C72.8198 94.3201 74.3029 92.1948 73.1739 90.1316L73.5352 89.8834C73.855 90.1923 74.2136 90.4582 74.6021 90.6746C76.8705 91.9115 79.1111 91.0289 80.3137 88.849C80.416 86.2593 79.819 85.6109 77.815 84.1195C77.7044 82.3057 77.5417 79.1863 77.8496 77.403Z" fill="#B6CCEE"/>
<path d="M76.689 69.529C76.4469 71.2691 76.0734 74.0311 75.9671 75.6926C74.4322 77.1939 73.0476 77.2433 71.0427 77.2491C71.3511 80.4598 71.4925 83.3428 71.9476 86.5836C71.3247 86.8401 71.1386 86.7864 70.8467 87.3405C70.9616 86.5463 70.4709 82.813 70.4417 81.7195C70.3804 79.4166 70.3912 77.1143 70.3699 74.8129C72.897 73.1562 74.6184 71.6845 76.689 69.529Z" fill="#0A6CC2"/>
<path d="M70.8467 87.3405C71.1386 86.7864 71.3247 86.8401 71.9476 86.5836C72.1388 87.3615 72.2208 87.6583 72.5397 88.4034L72.1355 88.673C71.7361 88.3299 71.0095 87.7987 70.8467 87.3405Z" fill="#0A6CC2"/>
<path d="M72.5397 88.4034C72.8284 88.8678 73.1828 89.4834 73.5352 89.8834L73.1739 90.1316C72.8237 89.5772 72.5302 89.1871 72.1355 88.673L72.5397 88.4034Z" fill="#0A6CC2"/>
<path d="M56.4423 21.3612C59.2823 21.3314 61.6521 22.6065 63.8968 24.2281C64.7469 24.8421 66.715 26.6111 67.2439 24.8525C67.0671 24.0223 66.0735 23.474 65.3708 22.9673C67.8964 21.9626 70.2155 21.7137 72.9138 22.0961C77.1456 22.695 80.894 25.1396 83.1483 28.7707C84.4313 30.8471 85.0446 32.5147 86.5889 34.5628C87.0314 34.9296 87.6891 35.5091 88.155 35.8044C87.1027 38.3014 85.0159 41.5677 84.62 43.8131C83.7845 42.9648 83.1115 42.1044 82.5618 41.0399C82.1435 40.3616 81.2505 38.5465 81.3757 37.7812C82.2963 37.1248 82.5522 38.6281 83.4069 36.2006C83.1942 34.984 83.0272 31.3127 80.8973 33.4306C80.1842 34.1398 81.0013 38.4444 81.2569 39.409C81.8256 41.5556 83.9012 43.1328 84.7271 44.8818L84.636 45.0151L84.517 45.0039C83.592 44.9253 82.8108 45.5656 82.0916 46.0894C81.5855 46.4581 81.4916 46.9275 81.3825 47.5151C81.845 48.966 82.3944 49.0375 83.72 49.588C82.1246 50.3464 81.1451 50.7477 79.3394 50.7714C78.525 50.779 77.7122 50.6979 76.9154 50.5297C75.6279 50.2522 72.1933 48.9147 71.3263 49.8895C71.2042 50.4211 71.6059 51.2027 72.118 51.3317C74.688 51.9789 77.104 52.6286 79.7564 52.8744C80.6499 58.3159 80.0196 61.5869 76.7913 66.2518C75.3506 68.3335 72.4859 71.0513 70.3787 72.4622C70.4872 71.5025 70.8044 69.8461 70.3416 69.0552C70.159 68.9403 69.9304 68.7845 69.738 68.7044C69.983 63.8509 62.4531 61.6761 63.3782 51.4105C64.2845 51.4945 65.2323 51.5357 65.5712 50.4724C65.5071 50.2162 65.1134 49.6844 64.8663 49.653C60.0676 49.0426 57.0228 48.0489 53.0041 45.2055L51.8068 44.0805C52.4828 42.8889 52.8941 42.1151 53.3522 40.8239C54.0415 38.8806 54.3703 35.7119 56.0687 34.3841C55.5054 30.4858 53.9614 24.8594 56.4423 21.3612Z" fill="#0A6CC2"/>
<path d="M53.0041 45.2055C56.2988 44.3345 58.9236 42.8814 61.8629 42.1801C67.3123 40.88 71.4997 43.7443 76.1554 45.9417C77.6994 46.6704 79.6555 47.1974 81.3825 47.5151C81.845 48.966 82.3944 49.0375 83.72 49.588C82.1246 50.3464 81.1451 50.7477 79.3394 50.7714C78.525 50.779 77.7122 50.6979 76.9154 50.5297C75.6279 50.2522 72.1933 48.9147 71.3263 49.8895C71.2042 50.4211 71.6059 51.2027 72.118 51.3317C74.688 51.9789 77.104 52.6286 79.7564 52.8744C80.6499 58.3159 80.0196 61.5869 76.7913 66.2518C75.3506 68.3335 72.4859 71.0513 70.3787 72.4622C70.4872 71.5025 70.8044 69.8461 70.3416 69.0552C70.159 68.9403 69.9304 68.7845 69.738 68.7044C69.983 63.8509 62.4531 61.6761 63.3782 51.4105C64.2845 51.4945 65.2323 51.5357 65.5712 50.4724C65.5071 50.2162 65.1134 49.6844 64.8663 49.653C60.0676 49.0426 57.0228 48.0489 53.0041 45.2055Z" fill="white"/>
<path d="M82.5618 41.0399C84.0243 39.7077 82.6832 36.7134 86.5889 34.5628C87.0314 34.9296 87.6891 35.5091 88.155 35.8044C87.1027 38.3014 85.0159 41.5677 84.62 43.8131C83.7845 42.9648 83.1115 42.1044 82.5618 41.0399Z" fill="white"/>
<path d="M58.3459 24.6046C59.9818 25.0342 62.6862 26.8616 63.8958 28.1098C63.0772 28.9307 62.1782 29.5823 61.2652 30.5259C60.831 30.998 59.7055 32.6241 59.2131 32.7797C57.8473 31.9935 57.7643 26.0568 58.3459 24.6046Z" fill="black"/>
<path d="M70.7917 37.3531C71.4879 37.3235 72.2114 37.361 72.5834 38.0176C73.4481 39.5439 73.606 41.1735 72.0698 42.1876C69.5858 42.4268 69.0773 38.5603 70.7917 37.3531Z" fill="black"/>
<path d="M57.8504 86.5978C55.1802 83.036 51.8221 80.7652 47.7138 79.1228C45.8259 78.3681 41.3305 77.1144 40.9365 74.8267C39.5861 66.9843 44.0861 59.9059 50.4574 55.6898C52.95 54.0403 55.0798 52.2681 56.6244 49.678C58.6549 50.4293 61.2405 51.1601 63.3782 51.4105C62.4531 61.6761 69.983 63.8509 69.738 68.7044C68.5527 68.902 68.5911 69.5306 68.5227 70.6254C68.3555 73.2982 68.3999 75.9919 68.4239 78.6696C66.993 79.3088 65.4846 79.8314 63.8245 79.5151C63.7314 79.4974 63.3591 79.3023 63.3473 79.2697C62.9554 78.1948 62.7325 76.5744 62.4176 75.4872C62.1895 74.7086 61.8865 73.9539 61.5127 73.234C60.5922 71.4569 59.2847 69.8475 57.5778 68.7825C56.6966 68.2328 54.9897 66.9686 53.9555 67.5126C53.6674 67.8304 53.6683 67.9252 53.6075 68.3321C53.6443 68.4527 53.6882 68.5967 53.7391 68.7638C54.9533 69.7055 56.4624 70.093 57.5881 71.2008C62.0383 75.5798 62.2317 82.2054 57.8504 86.5978Z" fill="#0A6CC2"/>
<path d="M41.7242 97.6793C39.998 97.2144 38.3398 96.5258 36.7922 95.6309C34.6652 94.3944 32.6066 92.6831 31.1973 90.6584C25.2573 82.1252 28.8467 71.1933 39.0305 68.5461C38.9396 69.3412 38.4288 74.0838 38.5078 74.5323C39.4234 79.7373 47.3555 80.1693 50.7551 82.8417L50.7984 82.8761C54.6868 84.9796 57.4468 88.7067 58.6918 92.9131C59.4709 95.6448 59.5375 98.5303 58.8851 101.295C57.3984 100.718 55.6576 100.026 54.1018 99.7598C49.8269 99.0285 45.962 98.7949 41.7242 97.6793Z" fill="#0A6CC2"/>
<path d="M50.7984 82.8761C54.6868 84.9796 57.4468 88.7067 58.6918 92.9131C59.4709 95.6448 59.5375 98.5303 58.8851 101.295C57.3984 100.718 55.6576 100.026 54.1018 99.7598C49.8269 99.0285 45.962 98.7949 41.7242 97.6793C42.3497 96.4001 44.0731 96.0593 45.4893 95.5286C44.6267 94.1427 43.6575 92.9826 42.7711 91.484C44.1331 90.9455 46.6893 90.6046 48.237 90.3601C47.5979 89.0708 46.8564 87.2678 46.3461 85.9343C47.8942 85.9231 50.1113 86.2907 51.6868 86.5058C51.3614 85.4732 50.8593 83.9483 50.7984 82.8761Z" fill="white"/>
<path d="M78.7018 12.685C80.8355 13.0572 81.6025 21.9831 81.6196 23.9594C81.087 23.6621 80.5643 23.2334 80.0766 22.8587C80.0716 20.9185 79.9739 19.4898 79.5318 17.6111C79.3089 17.1302 79.4158 17.1596 79.0282 16.9675C78.0913 17.2196 77.0837 20.309 76.9114 21.2298C75.8904 20.7285 75.5148 20.6396 74.4338 20.4494C75.4119 17.5643 76.571 14.9058 78.7018 12.685Z" fill="#0A6CC2"/>
</svg>
