<svg xmlns="http://www.w3.org/2000/svg" width="24" height="24" viewBox="0 0 24 24" fill="none">
  <path
    d="M20 12C20 14.1217 19.1571 16.1566 17.6569 17.6569C16.1566 19.1571 14.1217 20 12 20C10.6291 20 9.33895 19.6547 8.21053 19.0476C6.63748 18.1996 5.57895 18.9878 4.64506 19.1293C4.57522 19.1393 4.50401 19.1326 4.43726 19.1098C4.37051 19.0869 4.31013 19.0486 4.26106 18.9979C4.18779 18.9201 4.13931 18.8223 4.12177 18.7169C4.10423 18.6115 4.11841 18.5032 4.16253 18.4059C4.52969 17.5427 4.86569 15.9057 4.40674 14.5263C4.13649 13.7115 3.99916 12.8585 4 12C4 9.87827 4.84286 7.84344 6.34315 6.34315C7.84344 4.84285 9.87827 4 12 4C14.1217 4 16.1566 4.84285 17.6569 6.34315C19.1571 7.84344 20 9.87827 20 12Z"
    stroke="currentColor"
    stroke-width="1.5"
    stroke-linecap="round"
    stroke-linejoin="round"
  />
  <path
    d="M12 13.2958C11.5161 13.2958 11.2339 13.0302 11.2177 12.5392L11.0968 8.86922C11.0806 8.36217 11.4516 8 11.9919 8C12.5323 8 12.9113 8.36217 12.8952 8.87726L12.7661 12.5312C12.75 13.0302 12.4758 13.2958 12 13.2958ZM12 16C11.4516 16 11 15.6217 11 15.0825C11 14.5513 11.4435 14.165 12 14.165C12.5645 14.165 13 14.5433 13 15.0825C13 15.6217 12.5565 16 12 16Z"
    fill="currentColor"
  />
</svg>
