<svg
  xmlns="http://www.w3.org/2000/svg"
  width="14"
  height="14"
  viewBox="0 0 14 14"
  fill="none"
>
  <path
    fill-rule="evenodd"
    clip-rule="evenodd"
    d="M12 6.66667C12 9.61218 9.61218 12 6.66667 12C3.72115 12 1.33333 9.61218 1.33333 6.66667C1.33333 3.72115 3.72115 1.33333 6.66667 1.33333C9.61218 1.33333 12 3.72115 12 6.66667ZM13.3333 6.66667C13.3333 10.3486 10.3486 13.3333 6.66667 13.3333C2.98477 13.3333 0 10.3486 0 6.66667C0 2.98477 2.98477 0 6.66667 0C10.3486 0 13.3333 2.98477 13.3333 6.66667ZM7.49154 3.74634C7.49154 4.19295 7.13607 4.53475 6.66667 4.53475C6.19727 4.53475 5.83724 4.19295 5.83724 3.74634C5.83724 3.29517 6.19727 2.95337 6.66667 2.95337C7.13607 2.95337 7.49154 3.29517 7.49154 3.74634ZM5.86003 8.77683H5.33333C4.96514 8.77683 4.66667 9.07531 4.66667 9.4435C4.66667 9.81169 4.96514 10.1102 5.33333 10.1102H8C8.36819 10.1102 8.66667 9.81169 8.66667 9.4435C8.66667 9.07531 8.36819 8.77683 8 8.77683H7.47331V5.77433C7.47331 5.24569 7.17253 4.93579 6.66667 4.93579C6.64954 4.93579 6.63266 4.93614 6.61603 4.93683H5.66667C5.29848 4.93683 5 5.23531 5 5.6035C5 5.97169 5.29848 6.27017 5.66667 6.27017H5.86003V8.77683Z"
    fill="#92A6B0"
  />
</svg>
