<svg xmlns="http://www.w3.org/2000/svg" width="24" height="24" viewBox="0 0 24 24" fill="none">
  <path
    d="M5.47109 20C3.96474 20 3 18.9162 3 17.5843C3 17.1789 3.11001 16.757 3.3385 16.3681L9.88011 5.21613C10.3456 4.41365 11.1664 4 12.0042 4C12.8336 4 13.6544 4.40538 14.1199 5.21613L20.6615 16.3599C20.89 16.757 21 17.1789 21 17.5843C21 18.9162 20.0353 20 18.5289 20H5.47109ZM5.72496 18.2378H18.275C18.7574 18.2378 19.0705 17.8656 19.0705 17.4519C19.0705 17.3278 19.0367 17.1706 18.9605 17.03L12.6643 6.25026C12.5205 6.00207 12.2581 5.89452 12.0042 5.89452C11.7419 5.89452 11.4711 5.9938 11.3272 6.25026L5.03949 17.0217C4.96333 17.1624 4.93794 17.3195 4.93794 17.4519C4.93794 17.8656 5.2426 18.2378 5.72496 18.2378ZM12.0042 14.1675C11.4965 14.1675 11.2003 13.8945 11.1834 13.3899L11.0564 9.61737C11.0395 9.09617 11.4288 8.72389 11.9958 8.72389C12.5628 8.72389 12.9605 9.09617 12.9436 9.62565L12.8082 13.3816C12.7913 13.8945 12.5035 14.1675 12.0042 14.1675ZM12.0042 16.9473C11.4288 16.9473 10.9549 16.5584 10.9549 16.0041C10.9549 15.4581 11.4203 15.061 12.0042 15.061C12.5966 15.061 13.0536 15.4498 13.0536 16.0041C13.0536 16.5584 12.5882 16.9473 12.0042 16.9473Z"
    fill="currentColor"
  />
</svg>
