<svg
  xmlns="http://www.w3.org/2000/svg"
  width="16"
  height="16"
  viewBox="0 0 16 16"
  fill="none"
>
  <path
    fill-rule="evenodd"
    clip-rule="evenodd"
    d="M2.66683 7.99968C2.66683 5.05416 5.05464 2.66634 8.00016 2.66634C8.85283 2.66634 9.65696 2.86594 10.3701 3.22036C10.6999 3.38422 11.1 3.24976 11.2638 2.92004C11.4277 2.59032 11.2932 2.1902 10.9635 2.02634C10.0701 1.58235 9.06329 1.33301 8.00016 1.33301C4.31826 1.33301 1.3335 4.31778 1.3335 7.99968C1.3335 11.6816 4.31826 14.6663 8.00016 14.6663C11.6821 14.6663 14.6668 11.6816 14.6668 7.99968C14.6668 7.63148 14.3684 7.33301 14.0002 7.33301C13.632 7.33301 13.3335 7.63148 13.3335 7.99968C13.3335 10.9452 10.9457 13.333 8.00016 13.333C5.05464 13.333 2.66683 10.9452 2.66683 7.99968ZM14.4716 4.47108C14.7319 4.21073 14.7319 3.78862 14.4716 3.52827C14.2112 3.26792 13.7891 3.26792 13.5288 3.52827L8.00016 9.05687L6.13823 7.19494C5.87788 6.93459 5.45577 6.93459 5.19543 7.19494C4.93508 7.45529 4.93508 7.8774 5.19543 8.13775L7.45805 10.4004C7.75745 10.6998 8.24288 10.6998 8.54228 10.4004L14.4716 4.47108Z"
    fill="#2A8BDF"
  />
</svg>
