<svg width="20" height="20" viewBox="0 0 20 20" fill="none" xmlns="http://www.w3.org/2000/svg">
  <path d="M5.86621 13.8066C4.0293 13.8066 2.51465 12.4692 2.22998 10.7129H1.44043C1.15576 10.7129 1 10.5571 1 10.2617V9.64941C1 9.354 1.15039 9.20361 1.44043 9.20361H2.2998C2.70264 7.61377 4.14746 6.44287 5.86621 6.44287C7.54199 6.44287 8.95459 7.56006 9.40039 9.09082C9.6958 8.9834 10.0396 8.93506 10.3188 8.93506C10.5981 8.93506 10.9419 8.9834 11.2427 9.09082C11.6885 7.56006 13.1011 6.44287 14.7769 6.44287C16.4956 6.44287 17.9351 7.61377 18.3433 9.20361H19.1973C19.4927 9.20361 19.6431 9.354 19.6431 9.64941V10.2617C19.6431 10.5571 19.4873 10.7129 19.1973 10.7129H18.4131C18.1284 12.4692 16.6084 13.8066 14.7769 13.8066C12.8325 13.8066 11.2373 12.3027 11.103 10.3853C10.8506 10.2939 10.5713 10.2563 10.3188 10.2563C10.0718 10.2563 9.78711 10.2939 9.53467 10.3853C9.40039 12.3027 7.81055 13.8066 5.86621 13.8066ZM5.86621 12.3672C7.10156 12.3672 8.10596 11.3628 8.10596 10.1221C8.10596 8.88672 7.10156 7.88232 5.86621 7.88232C4.62549 7.88232 3.62109 8.88672 3.62109 10.1221C3.62109 11.3628 4.62549 12.3672 5.86621 12.3672ZM14.7769 12.3672C16.0176 12.3672 17.0166 11.3628 17.0166 10.1221C17.0166 8.88672 16.0176 7.88232 14.7769 7.88232C13.5415 7.88232 12.5371 8.88672 12.5371 10.1221C12.5371 11.3628 13.5415 12.3672 14.7769 12.3672Z" fill="#0A6CC2"/>
</svg>
