<svg width="121" height="28" viewBox="0 0 121 28" fill="none" xmlns="http://www.w3.org/2000/svg">
<g clip-path="url(#clip0_1110_29474)">
<path d="M45.2144 22.3051H41.6037L38.1868 16.3926H35.6423V22.3051H32.2982V5.27307H39.0834C40.6505 5.27307 41.9833 5.82458 43.0819 6.92761C44.1804 8.03064 44.7297 9.36076 44.7297 10.918C44.7297 11.9723 44.4308 12.9537 43.8331 13.8621C43.2353 14.7542 42.4437 15.4274 41.4583 15.8816L45.2144 22.3051ZM39.0834 8.41183H35.6423V13.4484H39.0834C39.7135 13.4484 40.2547 13.2051 40.707 12.7185C41.1594 12.2156 41.3856 11.6155 41.3856 10.918C41.3856 10.2205 41.1594 9.6284 40.707 9.14178C40.2547 8.65515 39.7135 8.41183 39.0834 8.41183Z" fill="#157CD5"/>
<path d="M58.6847 17.5118H49.5489C49.9528 19.0366 51.0917 19.799 52.9657 19.799C54.1612 19.799 55.0659 19.3934 55.6798 18.5824L58.2001 20.0423C57.0046 21.7779 55.2436 22.6457 52.9173 22.6457C50.914 22.6457 49.3065 22.0375 48.0949 20.8209C46.8832 19.6043 46.2774 18.0714 46.2774 16.2222C46.2774 14.4055 46.8752 12.8807 48.0707 11.6479C49.25 10.4151 50.7848 9.79872 52.6749 9.79872C54.4682 9.79872 55.9302 10.4151 57.0611 11.6479C58.2243 12.8807 58.8059 14.4055 58.8059 16.2222C58.8059 16.5629 58.7655 16.9927 58.6847 17.5118ZM49.5004 15.0787H55.6798C55.5021 14.2838 55.1386 13.6755 54.5893 13.2538C54.0562 12.832 53.4181 12.6212 52.6749 12.6212C51.8348 12.6212 51.1402 12.8402 50.5909 13.2781C50.0416 13.6999 49.6781 14.3 49.5004 15.0787Z" fill="#157CD5"/>
<path d="M66.0158 18.6554L68.9722 10.1394H72.4133L67.809 22.3051H64.2468L59.6425 10.1394H63.0836L66.0158 18.6554Z" fill="#157CD5"/>
<path d="M85.7093 17.5118H76.5734C76.9773 19.0366 78.1163 19.799 79.9903 19.799C81.1858 19.799 82.0905 19.3934 82.7044 18.5824L85.2246 20.0423C84.0291 21.7779 82.2682 22.6457 79.9418 22.6457C77.9386 22.6457 76.3311 22.0375 75.1194 20.8209C73.9078 19.6043 73.302 18.0714 73.302 16.2222C73.302 14.4055 73.8997 12.8807 75.0952 11.6479C76.2746 10.4151 77.8093 9.79872 79.6995 9.79872C81.4927 9.79872 82.9548 10.4151 84.0857 11.6479C85.2488 12.8807 85.8304 14.4055 85.8304 16.2222C85.8304 16.5629 85.7901 16.9927 85.7093 17.5118ZM76.525 15.0787H82.7044C82.5267 14.2838 82.1632 13.6755 81.6139 13.2538C81.0808 12.832 80.4426 12.6212 79.6995 12.6212C78.8594 12.6212 78.1647 12.8402 77.6154 13.2781C77.0662 13.6999 76.7027 14.3 76.525 15.0787Z" fill="#157CD5"/>
<path d="M91.6235 10.1394V12.2319C91.8981 11.4695 92.3666 10.8936 93.029 10.5043C93.6913 10.0988 94.4506 9.89605 95.3069 9.89605V13.3998C94.3537 13.27 93.4975 13.4647 92.7382 13.9837C91.995 14.4866 91.6235 15.322 91.6235 16.4899V22.3051H88.4974V10.1394H91.6235Z" fill="#157CD5"/>
<path d="M100.125 13.5944C100.125 14.1135 100.86 14.5596 102.33 14.9327C102.847 15.0462 103.316 15.1841 103.736 15.3463C104.156 15.4923 104.576 15.7113 104.996 16.0032C105.432 16.279 105.771 16.6521 106.014 17.1225C106.256 17.5929 106.377 18.1363 106.377 18.7527C106.377 20.0017 105.909 20.9669 104.972 21.6481C104.034 22.3132 102.879 22.6457 101.506 22.6457C99.0183 22.6457 97.3219 21.6806 96.4172 19.7503L99.1313 18.2174C99.5029 19.2718 100.295 19.799 101.506 19.799C102.621 19.799 103.178 19.4502 103.178 18.7527C103.178 18.2336 102.443 17.7876 100.973 17.4145C100.424 17.2685 99.9553 17.1225 99.5675 16.9765C99.1798 16.8305 98.7598 16.6196 98.3074 16.3439C97.8551 16.0519 97.5077 15.6869 97.2654 15.249C97.0392 14.7948 96.9261 14.2676 96.9261 13.6674C96.9261 12.4671 97.3623 11.5263 98.2347 10.845C99.1233 10.1475 100.222 9.79872 101.53 9.79872C102.516 9.79872 103.413 10.0258 104.22 10.48C105.028 10.918 105.666 11.5506 106.135 12.3779L103.469 13.8377C103.081 13.0105 102.435 12.5968 101.53 12.5968C101.127 12.5968 100.787 12.6942 100.513 12.8888C100.254 13.0673 100.125 13.3025 100.125 13.5944Z" fill="#157CD5"/>
<path d="M119.03 20.7965C117.802 22.0293 116.283 22.6457 114.474 22.6457C112.664 22.6457 111.146 22.0293 109.918 20.7965C108.69 19.5638 108.076 18.039 108.076 16.2222C108.076 14.4217 108.69 12.905 109.918 11.6722C111.162 10.4232 112.681 9.79872 114.474 9.79872C116.267 9.79872 117.786 10.4232 119.03 11.6722C120.274 12.9213 120.896 14.4379 120.896 16.2222C120.896 18.0228 120.274 19.5475 119.03 20.7965ZM112.123 18.631C112.753 19.2637 113.537 19.58 114.474 19.58C115.411 19.58 116.194 19.2637 116.824 18.631C117.455 17.9984 117.77 17.1955 117.77 16.2222C117.77 15.249 117.455 14.446 116.824 13.8134C116.194 13.1808 115.411 12.8645 114.474 12.8645C113.537 12.8645 112.753 13.1808 112.123 13.8134C111.509 14.4623 111.202 15.2652 111.202 16.2222C111.202 17.1793 111.509 17.9822 112.123 18.631Z" fill="#157CD5"/>
<g clip-path="url(#clip1_1110_29474)">
<g clip-path="url(#clip2_1110_29474)">
<path fill-rule="evenodd" clip-rule="evenodd" d="M10.9674 14.2506C10.5656 14.2506 10.2293 14.7168 9.94678 15.0034C9.68909 15.2648 9.33144 15.4268 8.93609 15.4268C8.15092 15.4268 7.51441 14.788 7.51441 14C7.51441 13.212 8.15092 12.5732 8.93609 12.5732C9.37644 12.5732 9.77003 12.7742 10.0308 13.0896C10.2737 13.3834 10.587 13.845 10.9674 13.845C11.3477 13.845 11.6611 13.3834 11.9039 13.0896C12.1647 12.7742 12.5583 12.5732 12.9986 12.5732C13.4392 12.5732 13.833 12.7744 14.0937 13.0901C14.3362 13.3837 14.6493 13.845 15.0293 13.845C15.4093 13.845 15.7224 13.3837 15.9649 13.0901C16.2257 12.7744 16.6194 12.5732 17.06 12.5732C17.8452 12.5732 18.4817 13.212 18.4817 14C18.4817 14.788 17.8452 15.4268 17.06 15.4268C16.6644 15.4268 16.3066 15.2646 16.0489 15.003C15.7667 14.7165 15.4307 14.2506 15.0293 14.2506C14.6279 14.2506 14.2919 14.7165 14.0098 15.003C13.752 15.2646 13.3942 15.4268 12.9986 15.4268C12.6033 15.4268 12.2456 15.2648 11.988 15.0034C11.7054 14.7168 11.3691 14.2506 10.9674 14.2506Z" fill="#157CD5"/>
<path fill-rule="evenodd" clip-rule="evenodd" d="M4.61522 5.27122L11.5538 0.0829502C11.8265 -0.120973 12.2143 0.0743616 12.2143 0.415673V3.42188H15.4573C21.2777 3.42188 25.9961 8.15721 25.9961 13.9985C25.9961 15.3665 25.7373 16.6739 25.2662 17.8739C25.1762 18.1031 24.9036 18.1915 24.691 18.0684L22.2333 16.6443C22.0576 16.5425 21.9828 16.3282 22.0451 16.1344C22.2616 15.4615 22.3785 14.7437 22.3785 13.9985C22.3785 10.1623 19.2798 7.05248 15.4573 7.05248H15.4569H13.3515V7.05232H5.67895C4.075 7.05232 3.92754 5.70664 4.61522 5.27122Z" fill="#157CD5"/>
<path fill-rule="evenodd" clip-rule="evenodd" d="M21.3809 22.7288L14.4423 27.917C14.1696 28.121 13.7818 27.9256 13.7818 27.5843V24.5781H10.5388C4.71837 24.5781 4.62648e-06 19.8428 4.62648e-06 14.0015C4.62648e-06 12.6335 0.258797 11.3261 0.729928 10.1261C0.819881 9.89693 1.09254 9.8085 1.30506 9.93163L3.76279 11.3557C3.9385 11.4575 4.01331 11.6718 3.95098 11.8656C3.73454 12.5385 3.61761 13.2563 3.61761 14.0015C3.61761 17.8377 6.71632 20.9475 10.5388 20.9475H10.5391H12.6446V20.9477H20.3171C21.9211 20.9477 22.0686 22.2934 21.3809 22.7288Z" fill="#EC523B"/>
</g>
</g>
</g>
<defs>
<clipPath id="clip0_1110_29474">
<rect width="121" height="28" fill="white"/>
</clipPath>
<clipPath id="clip1_1110_29474">
<rect width="25.9961" height="28" fill="white"/>
</clipPath>
<clipPath id="clip2_1110_29474">
<rect width="25.9961" height="28" fill="white"/>
</clipPath>
</defs>
</svg>
